<svg id="Capa_1" enable-background="new 0 0 497.004 497.004" height="512" viewBox="0 0 497.004 497.004" width="512" xmlns="http://www.w3.org/2000/svg"><g><path d="m489.49 158.502h-22.814l-35.205 14.732-120.8 150.268 12.004 15h34.814c2.278 0 4.433-1.036 5.857-2.815l132-165c3.929-4.91.433-12.185-5.856-12.185z" fill="#d40000"/><g fill="#f02e0e"><path d="m302.234 248.502h-94.231c-18.227 0-35.466 8.285-46.852 22.518l-44.237 55.296c-3.929 4.911-.432 12.185 5.857 12.185h57.628c2.278 0 4.433-1.036 5.857-2.815l21.748-27.185h58.231c2.278 0 4.433-1.036 5.857-2.815l36-45c3.927-4.909.431-12.184-5.858-12.184z"/><path d="m374.234 158.502h-166.231c-45.568 0-88.664 20.713-117.13 56.296l-89.215 111.519c-3.929 4.911-.432 12.185 5.857 12.185h57.628c2.278 0 4.433-1.036 5.857-2.815l66.726-83.408c17.079-21.349 42.938-33.778 70.278-33.778h130.231c2.278 0 4.433-1.036 5.857-2.815l36-45c3.927-4.909.431-12.184-5.858-12.184z"/><path d="m426.005 161.317-132 165c-3.929 4.911-.432 12.185 5.857 12.185h22.814l144-180h-34.814c-2.278 0-4.433 1.036-5.857 2.815z"/></g></g></svg>